<?xml version="1.0" encoding="UTF-8" standalone="no"?>
<!-- Created with Inkscape (http://www.inkscape.org/) -->

<svg
   width="154.18906mm"
   height="179.14668mm"
   viewBox="0 0 154.18906 179.14668"
   version="1.1"
   id="svg5"
   inkscape:version="1.1 (c4e8f9e, 2021-05-24)"
   sodipodi:docname="glorydoge.svg"
   xmlns:inkscape="http://www.inkscape.org/namespaces/inkscape"
   xmlns:sodipodi="http://sodipodi.sourceforge.net/DTD/sodipodi-0.dtd"
   xmlns="http://www.w3.org/2000/svg"
   xmlns:svg="http://www.w3.org/2000/svg">
  <sodipodi:namedview
     id="namedview7"
     pagecolor="#ffffff"
     bordercolor="#666666"
     borderopacity="1.0"
     inkscape:pageshadow="2"
     inkscape:pageopacity="0.0"
     inkscape:pagecheckerboard="0"
     inkscape:document-units="mm"
     showgrid="false"
     inkscape:zoom="0.67081229"
     inkscape:cx="-50.68482"
     inkscape:cy="422.62195"
     inkscape:window-width="1312"
     inkscape:window-height="1003"
     inkscape:window-x="0"
     inkscape:window-y="25"
     inkscape:window-maximized="0"
     inkscape:current-layer="g125" />
  <defs
     id="defs2" />
  <g
     inkscape:label="Layer 1"
     inkscape:groupmode="layer"
     id="layer1"
     transform="translate(-20.370219,-21.357296)">
    <g
       id="g149"
       transform="matrix(0.26458333,0,0,0.26458333,-29.741864,10.490211)">
      <g
         id="g125">
        <path
           class="st0"
           d="m 509.77,718.16 c -8.88,0.15 -13.76,-7.2 -16.37,-11.87 -4.64,-2.93 -23.03,-9.26 -66.65,-16.59 -9.32,-1.56 -17.16,-3.74 -23.33,-6.47 l -0.14,0.21 c -4.87,-2.04 -48.07,-20.67 -66.51,-46.79 -8.04,-11.39 -16.37,-18.7 -22.07,-22.9 l -4.25,3.71 c -2.71,-1.92 -26.72,-19.25 -36.39,-37.61 -5.08,-9.63 -6.66,-16.28 -8.05,-22.14 -0.48,-2.01 -0.93,-3.91 -1.53,-5.92 l -1.43,9.37 -19.34,-38.67 c -4.09,-8.18 -15.65,-30.33 -23.18,-41.09 l -13.41,26.8 -2.32,-52.84 c -0.01,-0.15 -0.74,-15.4 -4.79,-30.91 l -10.61,14.24 2.85,-46.02 c 1.59,-25.7 22.64,-76.97 25.04,-82.73 l 0.18,-0.41 11.41,-25.11 c -2.99,-16.53 0.91,-43.19 5.93,-73.48 0.62,-3.77 1.2,-7.23 1.67,-10.26 l 0.07,-0.47 c 2.86,-18.31 2.86,-18.31 3.2,-32.57 l 0.16,-6.46 c 0.64,-24.75 13.19,-81.22 19.84,-98.71 5.22,-13.73 15.89,-21.13 30.86,-21.39 10.39,-0.18 22.95,2.87 39.87,7.85 28.49,8.39 54.13,38.09 64.65,51.64 5.26,-0.63 12.26,-1.51 17.97,-2.36 2.69,-0.4 5.91,-0.63 9.59,-0.7 13.02,-0.23 33.31,1.78 46.9,6.05 2.85,0.9 6.34,1.31 10.38,1.24 7.35,-0.13 13.71,-1.88 13.77,-1.89 l 0.46,-0.13 0.47,-0.1 c 1.77,-0.38 3.53,-0.59 5.22,-0.62 6.91,-0.12 11.55,2.67 14.32,4.34 0.48,0.29 0.97,0.59 1.34,0.78 0.29,0.02 0.79,0.03 1.61,0.02 1.74,-0.03 4.17,-0.17 7.25,-0.35 6.03,-0.35 15.15,-0.89 28.52,-1.12 21.89,-0.38 34.95,3.74 44.48,6.75 3.14,0.99 5.75,1.82 7.87,2.2 8.61,-4.3 32.51,-27.67 40.59,-35.57 9.38,-9.17 11.46,-11.16 14.21,-12.6 0.34,-0.18 0.85,-0.47 1.51,-0.84 7.25,-4.07 26.53,-14.88 50,-19.06 1.96,-0.35 3.93,-0.54 5.89,-0.58 10.87,-0.19 20.91,4.37 29.04,13.18 18.18,19.68 25.12,58.4 20.11,112.03 5.93,46.23 -11.06,86.18 -19.02,101.84 4.97,10.22 14.02,31.08 20.48,59.08 9.77,42.31 -0.12,115.84 -7.94,141.76 -3.94,13.06 -9.93,24.95 -15.21,35.43 -5.52,10.96 -10.73,21.3 -12.47,30.65 -4.16,22.32 -17.54,54.41 -18.11,55.77 l -2.84,-0.55 c -3.94,9.28 -11.81,24.92 -25.22,40.19 -20.59,23.45 -49.08,35.91 -50.28,36.43 l -40.52,17.48 10.77,-17.16 c -2.85,0.52 -5.74,1.02 -8.65,1.53 -10.67,1.86 -21.71,3.79 -30.58,6.54 -16.63,5.16 -38.13,24.31 -46.19,32.39 -2.6,3.37 -6.61,5.47 -11.08,5.54 z"
           id="path13"
           style="fill:#ffffff"
           inkscape:export-filename="/Users/youssefkababe/Downloads/glorydoge.png"
           inkscape:export-xdpi="198.49657"
           inkscape:export-ydpi="198.49657" />
        <g
           id="g119">
          <g
             id="g117">
            <g
               id="g111">
              <path
                 class="st2"
                 d="M 494.55,359.44 336.3,274.8 l -78.12,30.7 -30.62,77.13 c 0,0 -5.97,28.27 1.02,58.43 6.99,30.16 57.86,104.7 57.86,104.7 0,0 23.22,40.54 35.1,48.95 11.88,8.41 55.66,47.16 78.12,58.26 22.46,11.1 73.81,31.04 96.09,31.37 22.27,0.33 28.01,-0.49 28.01,-0.49 0,0 31.27,-28.91 58.74,-32.63 27.46,-3.73 92.48,-23.88 107.76,-56.48 15.28,-32.59 46.2,-124.5 46.2,-124.5 0,0 18.21,-69.86 9.12,-110.65 -9.09,-40.79 -49.28,-79.59 -51.44,-80.27 -2.2,-0.67 -199.59,80.12 -199.59,80.12 z"
                 id="path23" />
              <path
                 class="st3"
                 d="m 267.76,328.27 c 0,0 -2.96,23.21 -12.95,39.9 -9.98,16.7 -6.85,31.37 -6.85,31.37 l 10.12,-7.72 c 0,0 -4.11,1.87 -5.6,19.85 -1.48,17.98 10.51,74.16 20,89.44 9.49,15.28 14.71,26.44 14.71,26.44 l -0.4,-22.74 c 0,0 -3.67,16.23 16.77,34.91 20.44,18.68 26.51,37.25 26.51,37.25 l -0.28,-16.16 c 0,0 5.64,14.63 22.7,24.75 17.06,10.12 39.13,60.73 43.87,64.6 -33.12,-24.92 -73.21,-57.98 -73.21,-57.98 L 293.59,565.04 268.27,513.76 237.1,456.48 221.07,423 l 1.7,-67.46 31.35,-27.02 z"
                 id="path25" />
              <path
                 class="st0"
                 d="m 398.67,138.37 c 0,0 -37.48,42.85 -50.47,51.7 -12.99,8.85 -23.35,28.1 -28.26,32.77 -4.91,4.67 -59.34,64.06 -59.34,64.06 0,0 -6.8,-5.49 -7.75,-32.36 -0.95,-26.87 5.82,-78.23 5.82,-78.23 0,0 21.2,-102.37 21.64,-104.3 0.44,-1.93 11.33,-9.3 11.33,-9.3 0,0 23.46,-0.41 35.56,7.04 12.11,7.46 71.47,68.62 71.47,68.62 z"
                 id="path27" />
              <path
                 class="st0"
                 d="m 611.49,141.89 c 0,0 40.33,35.92 56.25,51.44 15.92,15.52 60.26,66.25 60.26,66.25 0,0 14.24,-34.73 14.85,-54.37 0.61,-19.64 10.1,-52.38 7.95,-65.75 -2.15,-13.37 -2.53,-62.69 -22.23,-66.18 -19.7,-3.49 -44.05,5.63 -47.35,6.13 -3.3,0.5 -45.77,36.68 -45.77,36.68 z"
                 id="path29" />
              <path
                 class="st0"
                 d="m 256.97,328.46 c 0,0 21.39,2.18 40.57,-10.12 19.18,-12.3 46.68,-0.82 46.68,-0.82 l -14.91,9.9 c 0,0 18.16,-1.81 32.61,30.26 14.45,32.07 43.34,13.61 43.34,13.61 0,0 -35.59,57.56 1.74,99.82 -4.48,-23.63 29.2,-28.39 29.2,-28.39 0,0 -16.19,-7.31 -11.82,-31.67 4.37,-24.36 45.67,-24.88 45.67,-24.88 l -16.29,-7.47 c 0,0 10.25,5.19 28.42,-0.5 18.17,-5.69 49.86,-0.87 49.86,-0.87 l -21.38,-10.74 c 0,0 41.77,12.92 46.62,30.07 4.85,17.16 6.6,35 6.6,35 0,0 12.12,-46.14 7.66,-55.02 21.74,10.77 21.35,31.47 21.35,31.47 0,0 5.41,-20.82 9.88,-32.02 4.47,-11.2 18.33,-5.69 26.38,-14.45 8.05,-8.76 4.53,-45.72 26.07,-46.62 21.53,-0.9 36.22,17.13 36.22,17.13 l -12.21,0.21 c 0,0 17.37,7.27 22.04,28.02 4.21,-5.82 4.21,-5.82 4.21,-5.82 0,0 20.23,11.55 26.05,11.04 5.82,-0.51 11.61,15.8 11.61,15.8 0,0 14.69,-21.29 6.88,-41.98 -7.81,-20.7 -21.44,-60.68 -21.44,-60.68 l 3.25,-19.45 -60.73,-63.59 -25.94,-18.22 -13.14,-20.6 -74.88,-28.46 -57.07,1 -78.09,-3.35 -18.45,5.03 -35.16,52.62 -88.09,62.41 -11.28,42.06 -12.58,8.92 z"
                 id="path31" />
              <path
                 class="st4"
                 d="m 308.23,68.71 c 0,0 -10.22,2.03 -13.02,6.63 -2.79,4.6 -5.74,27.88 -5.74,27.88 l -2.25,-5.71 c 0,0 -2.51,7.23 -2.54,19.2 -0.03,11.97 2.95,18.39 0.72,27.28 -2.24,8.9 -2.03,21.11 -2.03,21.11 l 2.57,-3.4 c 0,0 6.79,18.8 0.2,38.79 -6.59,19.99 -17.57,36.22 -18.14,44.38 -0.58,8.15 5.9,-4.65 5.9,-4.65 0,0 -7.73,15.94 -5.65,22.37 2.08,6.43 57.78,-48.9 57.78,-48.9 l 60.4,-55.89 c 0,0 -9.58,27.46 -20.92,36.28 -11.34,8.82 -21.25,17.37 -26.14,24.88 -4.89,7.51 -14.96,34.33 -14.96,34.33 l 1.93,-21.89 c 0,0 2.26,1.64 -12.6,14.59 -14.86,12.95 -24.79,20.31 -25.29,32.53 -0.5,12.22 4.22,22.19 4.22,22.19 l -8.47,-4.88 c 0,0 0.38,21.88 2.6,25.62 -16.25,1.91 -19.06,6.82 -19.06,6.82 l -10.79,0.19 -7.07,-37.3 -2.55,-36.52 15.69,-47.75 -2.58,-78.97 9.53,-30.34 9.08,-28.35 10.67,-5.75 z"
                 id="path33" />
              <path
                 class="st5"
                 d="m 519.28,674.95 c 0,0 3.37,-1.6 8.72,-4.01 -1.91,7.08 -8.72,4.01 -8.72,4.01 z"
                 id="path35" />
              <path
                 class="st5"
                 d="m 667.63,614.11 c 9.96,-15.3 24.86,-38.97 33.64,-53 -8.38,18.6 -15.31,33.71 -15.31,33.71 0,0 -8.5,9.33 -18.33,19.29 z"
                 id="path37" />
              <path
                 class="st5"
                 d="m 725.15,432.39 -2.8,4.42 c 2.67,-5.33 2.8,-4.42 2.8,-4.42 z"
                 id="path39" />
              <path
                 class="st5"
                 d="m 726,378.26 c 0.15,28.64 -8.94,66.13 -9.22,67.29 l 5.54,-8.71 c -2.29,4.5 -6.39,13.46 -13.79,31.15 -16.19,38.71 -12.87,64.88 -12.87,64.88 l -7.45,-36.51 c 0,0 -4.84,32.04 -16.96,57.76 -12.11,25.71 -28.81,36.43 -28.81,36.43 l 19.81,-36.6 c -1.02,0.4 -33.66,13.93 -43.78,42.05 -10.28,28.54 -49.74,52.23 -49.74,52.23 0,0 51.48,-5.21 77.35,-14.35 -2.32,1.75 -4.26,2.94 -5.67,3.38 -9.68,3.05 -31.49,13.12 -50.44,13.11 -14.12,-0.03 -46.39,13.61 -61.96,20.56 0.26,-0.92 0.42,-1.99 0.49,-3.28 0.45,-9.81 6.51,-13.88 8,-14.73 l -12.46,6.5 0.35,-20.84 c 29.93,-13.45 18.88,-29.06 15.2,-54.86 -3.68,-25.78 -22.9,-57.06 -22.9,-57.06 0,0 -50.52,-33.35 -51.05,-33.47 -0.53,-0.1 11.73,-37.67 5.48,-45.48 22.07,3.32 41.63,4.01 54.58,-0.81 l -3.98,10.92 c 0.78,-0.33 25.96,-11.19 30.02,-24.68 4.08,-13.47 -0.49,-36.25 -0.65,-37.05 4.87,-11.25 4.55,-14.97 2.47,-19.15 12.58,-19.95 -8.62,-50.85 -7.07,-60.03 1.55,-9.17 32.7,-35.56 32.7,-35.56 0,0 -13.59,58.36 35.62,52.14 0,0 34.56,-23.75 39.24,-43.31 -26.17,0.46 -39.66,-8.01 -50.46,-9.25 -10.8,-1.26 -22.08,10.52 -22.08,10.52 0,0 7.59,-18.18 13.23,-24.74 5.63,-6.56 14.04,-8.87 14.04,-8.87 0,0 -11.5,-9.84 -4.52,-22.19 -8.61,0.87 -14.29,6 -14.29,6 0,0 -0.92,-12.91 5.3,-26.66 -30.18,-0.92 -15.86,23.98 -40.8,21.53 -24.95,-2.43 -46.22,-7.09 -46.22,-7.09 0,0 12.52,-3.1 17.78,-31.21 6.85,-36.71 20.97,-46.98 25.48,-49.4 -5.57,2.47 -26.41,11.68 -41.13,17.42 -9.71,-18.65 -5.99,-22.64 -4.3,-23.5 -4.22,1.32 -27.76,9.04 -36.76,17.68 -19.01,-19.77 -31.5,-34.64 -31.5,-34.64 0,0 65.31,0.49 116.33,5.02 l -24.94,3.79 c 0,0 21.63,4.3 31.02,7.37 9.4,3.07 20.89,3.21 30.07,14.55 9.17,11.33 21.62,11.48 21.62,11.48 l -12.77,2.37 c 0,0 13.08,7.68 31.93,18.13 18.87,10.45 52.94,51.5 52.94,51.5 l -19.84,-8.24 c 0.93,0.79 30.82,25.97 43.51,45.19 12.92,19.53 17.6,61.83 17.6,61.83 l -8.52,-14.94 c 0.02,0 9.09,25.34 9.23,54.43 z"
                 id="path41" />
              <path
                 class="st5"
                 d="m 731.38,480.53 11.51,-44.94 c -4.07,27.59 -10.08,50.2 -12.71,58.62 -1.53,4.87 -8.11,20.21 -15.76,37.49 z"
                 id="path43" />
              <path
                 class="st5"
                 d="m 742.86,205.2 c -9.81,41.84 -11.87,59.12 -11.87,59.12 l -0.01,6.94 -2.98,-11.68 c 0,0 -61.28,-67.4 -62.02,-68.84 -0.74,-1.42 -54.4,-43.59 -54.4,-43.59 l -27.06,-12.84 c 12.94,2.01 22.75,4.5 26.97,7.57 l 18.09,-19.46 c 0,0 53.04,-48.34 76.03,-48.75 22.98,-0.4 37.44,16.53 40.23,26.93 2.79,10.4 6.83,62.78 -2.98,104.6 z"
                 id="path45" />
              <path
                 class="st0"
                 d="m 571.5,128.14 13.01,6.18 c -8.91,-1.4 -19.28,-2.56 -30.35,-3.53 z"
                 id="path47" />
              <path
                 class="st0"
                 d="m 646.07,633.89 c 5.87,-4.4 14.1,-12.27 21.56,-19.78 -3.41,5.24 -6.24,9.49 -8.05,12.05 -1.99,2.83 -6.92,5.41 -13.51,7.73 z"
                 id="path49" />
              <path
                 class="st0"
                 d="m 701.27,561.11 c 4.24,-9.4 8.85,-19.69 13.13,-29.34 l -5.88,17.76 c 0,0 -2.87,4.6 -7.25,11.58 z"
                 id="path51" />
              <path
                 class="st0"
                 d="m 725.15,432.39 -2.8,4.42 c 2.67,-5.33 2.8,-4.42 2.8,-4.42 z"
                 id="path53" />
              <path
                 class="st0"
                 d="m 750.13,346.32 -1.55,67.11 -5.69,22.17 c 2.23,-15.04 3.87,-31.57 4.1,-48.08 0.61,-46.79 -16.02,-94.46 -16.02,-94.46 l 0.01,-21.79 z"
                 id="path55" />
              <path
                 class="st1"
                 d="m 494.9,472.09 c 0,0 6,14.62 -1.85,17.27 -7.85,2.65 -63.16,3.26 -74.87,-9.47 -11.71,-12.73 -39.04,-55.35 -45.47,-53.44 -6.43,1.91 -16.4,6.85 -1.94,33.12 14.47,26.28 26.43,53.37 34.53,64.36 8.09,10.99 26.45,33.66 30.65,48.31 4.2,14.65 3.05,30.48 19.86,47.42 16.82,16.95 50.81,30.36 75.11,23.11 24.3,-7.25 36.57,-24.34 40.16,-45.24 3.59,-20.89 26.05,-71.21 34.34,-90.03 8.29,-18.82 32.88,-50.5 31.58,-63.05 -1.3,-12.55 -4.6,-16.8 -10.65,-13.46 -6.05,3.34 -26.92,42.13 -42.98,47.8 -16.06,5.67 -55.1,12.1 -65.6,7.61 -10.5,-4.49 -13.91,-15.2 -7.53,-19.98 6.38,-4.78 27.77,-13.77 35.27,-36.89 7.5,-23.12 -19.07,-43.13 -36.32,-43.9 -17.25,-0.78 -64.22,3.99 -67.08,25.24 -2.86,21.24 1.96,30.14 17.94,39.91 15.97,9.79 31.19,17.06 34.85,21.31 z"
                 id="path57" />
              <path
                 class="st2"
                 d="m 454.69,431.85 c 0,0 17.08,11.55 32.32,-0.56 -10.92,12.4 -24.14,16.22 -32.32,0.56 z"
                 id="path59" />
              <path
                 class="st2"
                 d="m 511.78,430.85 c 0,0 18.36,2.55 25.07,-4.03 -1.92,13.32 -13.4,13.88 -25.07,4.03 z"
                 id="path61" />
              <path
                 class="st2"
                 d="m 476.58,409.91 c 0,0 -7.91,-0.58 -10.47,-3.05 -2.56,-2.47 -5.52,-7.81 10.24,-10.24 15.76,-2.43 25.38,-6.91 34.77,-3.84 9.39,3.07 20.57,5.39 12.73,9.12 -7.84,3.73 -19.3,5.37 -27.23,4.07 -7.92,-1.3 -12.83,5.3 -20.04,3.94 z"
                 id="path63" />
              <path
                 class="st6"
                 d="m 450.42,516.23 c 0,0 0.64,16.25 0.5,28.46 -0.15,12.21 -1.3,48.87 10.09,63.76 11.39,14.89 42.13,26.92 46.39,23.97 4.26,-2.95 2,-11.17 1.09,-21.21 -0.92,-10.04 -0.35,-20.11 -0.35,-20.11 0,0 3.12,15.39 6.89,25.38 3.77,9.99 2.44,16.58 9.98,16.04 7.53,-0.54 26.78,-9.14 34.27,-32.62 7.49,-23.48 14.45,-36.53 7.07,-47.53 -7.38,-11.01 -13.53,-13.77 -16.53,-20.9 -3,-7.13 -6.56,-25.75 -6.56,-25.75 0,0 -5.01,0.97 -4.87,8.97 0.14,8 3.96,20.86 -7.53,21.06 -11.49,0.2 -20.94,-8.61 -23.72,-2.1 -2.78,6.51 0.83,28.36 -2.06,27.33 -2.89,-1.03 -1.86,-24.39 -10.2,-28.56 -8.33,-4.16 -19.41,-0.74 -28.07,-3.1 -8.66,-2.35 -12.51,-17.2 -16.39,-13.09 z"
                 id="path65" />
              <path
                 class="st2"
                 d="m 444.7,524.81 c 0,0 0.72,-20.37 -4.34,-22.55 -5.06,-2.18 -7.97,3.13 -7.97,3.13 0,0 -4.97,-10.09 -8.67,-9.91 -3.71,0.18 -3.57,1.14 -3.57,1.14 0,0 -6.31,-11.74 -9.19,-12.05 -2.88,-0.31 -3.71,0.06 -3.71,0.06 0,0 21.85,38.06 37.45,40.18 z"
                 id="path67" />
              <path
                 class="st2"
                 d="m 551.43,507.74 c 0,0 -4.56,12.89 2.52,13.96 7.08,1.07 12.7,-6.57 12.15,-10.39 -0.55,-3.82 -1.68,-7.15 -1.68,-7.15 0,0 2.29,0.92 3.47,-0.06 1.18,-0.98 2.29,-6.03 2.38,-7.82 0.09,-1.8 -0.09,-4.91 -0.09,-4.91 0,0 -9.21,0.52 -11.29,4.87 -6.64,3.22 -7.46,11.5 -7.46,11.5 z"
                 id="path69" />
              <g
                 id="g75">
                <path
                   class="st1"
                   d="m 457.18,301.95 c 0,0 -1.81,6.26 -7.58,4.44 -5.77,-1.82 -10.24,-10.6 -10.24,-10.6 0,0 5.75,0.14 10.24,-3.05 4.49,-3.19 10,-16.7 7.02,-22.87 -3.27,4.61 -6.98,11.85 -20.24,6.34 -13.27,-5.52 -39.22,-38.11 -73.09,-16.92 0,0 27.07,0.96 33.28,13.79 -22.13,7.81 -22.25,14.52 -31.08,16.59 -8.82,2.07 -15.53,2.19 -15.53,2.19 0,0 17.32,4.73 24.03,4.61 10.95,23.51 22.14,33.61 51.72,27.35 -10.74,15.51 -41.04,8.38 -41.04,8.38 31.56,11.18 52.92,0.27 60.96,-5.61 0.11,-7.19 0.11,-7.19 0.11,-7.19 0,0 11.61,-8.11 11.44,-17.45 z"
                   id="path71" />
                <path
                   class="st1"
                   d="m 359.81,320.17 c 0,0 16.55,28.92 58.43,27.95 -40.74,11.73 -59.15,-0.4 -58.43,-27.95 z"
                   id="path73" />
              </g>
              <g
                 id="g79">
                <path
                   class="st1"
                   d="m 582.54,362.45 c 0,0 -14.33,-39.26 -12.37,-50.07 8.16,1.29 11.67,10.09 11.67,10.09 0,0 0.23,13.4 28.23,12.44 -9.67,-5.1 -14.36,-13.16 -14.36,-13.16 0,0 11.22,11.78 26.5,-4.53 15.28,-16.31 24.95,-24.62 24.95,-24.62 0,0 -2.61,1.24 -14.99,-8.36 -12.38,-9.6 -20.13,-14.73 -31.05,-9.04 -10.92,5.7 -17.49,13.24 -17.49,13.24 0,0 25.84,-42.35 54.25,-19.86 -8.89,-15.41 -12.53,-18.94 -30.24,-17.91 -17.71,1.03 -28.56,23.73 -37.17,24.59 -8.6,0.87 -15.42,-5.72 -15.42,-5.72 0,0 5.56,16.9 12.82,21.09 -6.95,13.53 -10.28,14.64 -7.45,26.04 2.84,11.4 22.12,45.78 22.12,45.78 z"
                   id="path77" />
              </g>
              <path
                 class="st1"
                 d="m 732.07,272.92 c 0,0 28.4,-46.47 20.74,-101.41 8.12,-83.47 -14.95,-115.63 -38.82,-111.38 -23.87,4.25 -43.77,16.57 -47.57,18.55 -3.8,1.98 -48.92,50.66 -60.43,49.9 -11.51,-0.76 -22.68,-9.66 -52.84,-9.13 -30.16,0.53 -37.31,2.57 -42.13,0.74 -4.82,-1.83 -6.92,-5.48 -13.48,-4.07 0,0 -17.63,5.1 -32.08,0.56 -14.45,-4.54 -39.38,-6.5 -50.37,-4.87 -10.99,1.63 -26.28,3.33 -26.28,3.33 0,0 -29.96,-43.54 -62.22,-53.04 -32.25,-9.49 -47.61,-11.62 -54.02,5.25 -6.41,16.87 -18.37,72.15 -18.95,94.19 -0.58,22.04 -0.14,19.16 -3.59,41.25 -3.45,22.09 -12.23,67.26 -6.69,82.97 -13.37,29.45 -13.37,29.45 -13.37,29.45 0,0 -22.52,54.17 -24.01,78.31 4.21,-5.65 4.21,-5.65 4.21,-5.65 0,0 -2.66,12.5 2.45,30.61 5.11,18.11 5.9,36.29 5.9,36.29 l 4.16,-8.32 c 0,0 -2.67,11.65 7.13,24.41 9.8,12.76 26.18,45.52 26.18,45.52 l 0.86,-5.64 c 0,0 7.31,7.41 15.75,24.51 8.44,17.09 5.18,22.25 13.6,38.23 8.42,15.98 32.18,32.81 32.18,32.81 l -4.95,-9.49 c 0,0 17.86,8.31 34.56,31.96 16.7,23.65 60.6,42.04 60.6,42.04 l -0.54,-0.52 c 4.54,2.14 11.19,4.27 20.98,5.91 30.99,5.21 71.04,13.61 75.66,22.14 4.62,8.54 5.43,5.65 5.43,5.65 0,0 28.34,-29.23 52.86,-36.84 24.52,-7.61 59.94,-8.71 74.6,-19.02 -6.99,11.14 -6.99,11.14 -6.99,11.14 0,0 26.62,-11.48 45.4,-32.88 18.78,-21.4 25.58,-43.55 25.58,-43.55 l 0.13,7.66 c 0,0 13.33,-31.84 17.27,-52.98 3.94,-21.14 20.34,-42.02 28.03,-67.53 7.7,-25.52 16.51,-96.55 7.7,-134.7 -8.81,-38.15 -22.63,-62.36 -22.63,-62.36 z M 644.22,123.96 C 650.41,114.87 658,104.32 658,104.32 l 0.08,4.67 c 0,0 20.41,-24.06 50.84,-29.62 30.43,-5.56 32.91,33.55 36.48,52.88 3.57,19.33 -1.8,40.62 -1.8,40.62 l -0.45,-25.49 c 0,0 -10.81,39.34 -9.58,68.41 1.23,29.07 -7.28,35.33 -7.28,35.33 0,0 -18.19,-33.8 -38.6,-51.05 7.11,-4.08 33.1,-58.76 28.03,-81.3 -5.06,-22.54 -15.32,-13.38 -28.88,-8.12 -13.56,5.27 -10.5,15.63 -10.5,15.63 l 15.08,-0.26 c 0,0 -17.11,7.48 -22.99,20.16 -5.88,12.68 4.82,8.89 3.59,20.41 -1.11,-2.14 -13.05,-6.96 -13.05,-6.96 0,0 5.45,3.86 8.02,27.52 -9.35,-21.03 -49,-49.79 -49,-49.79 0,0 20.05,-4.31 26.23,-13.4 z M 263.57,223.99 c 11.54,-17.8 11.73,-27.5 11.68,-50.85 -0.05,-23.35 -3.4,-50.58 -0.33,-59.98 2.37,12.17 4.58,15.36 4.58,15.36 0,0 -1.09,-41.64 6.25,-53.27 7.34,-11.62 28.93,-9.13 46.07,5.66 17.14,14.79 53.73,56.53 53.73,56.53 0,0 4.97,13.92 -13.54,23.94 -18.5,10.02 -28.66,24.92 -28.66,24.92 l 4.44,-18.4 c 0,0 -5.71,7.64 -12.48,10.63 -1.48,-22.96 15.45,-20.38 6.39,-45.37 -9.06,-24.98 -26.33,-26.84 -26.33,-26.84 l 16.16,-0.28 c 0,0 -9.4,-23.9 -23.23,-13.96 -13.83,9.94 -2.81,65.06 -0.32,84.41 1.36,10.52 -0.81,20.23 -3.06,26.92 l 8.22,-19.46 c 0,0 24.84,23.99 -5.75,41.05 -30.59,17.06 -47.66,47.52 -47.66,47.52 0,0 -7.7,-30.73 3.84,-48.53 z m 478.16,149.67 -7.07,-13.87 c 0,0 4.11,29.74 4.57,55.95 0.46,26.21 -16.5,63.22 -16.5,63.22 l -0.22,-12.65 c 0,0 -8.78,32.12 -14,62.38 -5.22,30.26 -41.37,78.3 -40.69,76.5 0.69,-1.81 4.6,-24.5 4.6,-24.5 0,0 -27.87,49.33 -50.08,52.95 -22.21,3.62 -64.36,16.93 -64.36,16.93 l 13.01,-0.23 c 0,0 -19.37,6.44 -58.86,24.73 -11.26,-10.58 -43.55,-11.81 -43.55,-11.81 l 11.53,12.37 c 0,0 -33.59,-10.91 -59.25,-19.8 C 395.2,646.94 387.18,639.9 375.8,625.73 364.42,611.56 335.63,588 335.63,588 l 10.73,17.77 c 0,0 -19.74,-19.77 -33.21,-30.31 -13.47,-10.54 -18.95,-35.95 -18.95,-35.95 l -0.07,16.52 c 0,0 -8.04,-28.59 -20.19,-45.62 -12.15,-17.03 -12.99,-23.84 -23.06,-45.21 -10.07,-21.37 -11.5,-41.46 -11.5,-41.46 l -6.38,5.14 c 0,0 -5.49,-46.96 9.92,-69.49 15.41,-22.53 20.18,-57.82 20.18,-57.82 0,0 3.04,9.29 18.22,15.13 -11.48,-19.91 -5.34,-38.34 3.74,-53.22 9.08,-14.88 38.32,-47.72 49.75,-51.15 11.43,-3.43 50.55,-46.5 63.95,-60.74 13.4,-14.24 28.43,-17.4 28.43,-17.4 L 418.57,134 c 0,0 17.11,-7.48 40.75,-0.71 23.64,6.77 40.81,1.44 40.81,1.44 6.23,-1.26 53.5,0.5 71.13,2.35 17.63,1.85 63.8,33.73 63.8,33.73 L 624.33,171 c 0,0 35.89,19.13 49.53,39.36 13.64,20.23 50.15,54.08 50.15,54.08 l -10.1,-2.7 c 0,0 7.35,9.57 12.37,29.6 5.02,20.03 11.51,21.35 14.79,45 3.29,23.64 0.66,37.32 0.66,37.32 z"
                 id="path81" />
              <path
                 class="st1"
                 d="m 282.05,363.15 c 0,0 -10.76,14.47 -11.51,26.5 4.31,-0.03 5.98,-0.1 5.98,-0.1 0,0 -6.89,30.33 -2.42,39.83 4.48,9.5 9.55,25.69 9.55,25.69 l -0.23,-13.21 c 0,0 10.78,13.98 11.56,31.21 0.78,17.23 25.35,52.84 25.35,52.84 0,0 -3.56,-39.33 -9.65,-58.86 -6.09,-19.53 -7.61,-51.59 -7.61,-51.59 l -8.02,20.89 c 0,0 -5.1,-4.38 -6.31,-18.73 -1.21,-14.35 2.07,-18.32 0.94,-28.31 -1.13,-10 4.22,-18.71 4.22,-18.71 l -9.69,7.35 c 0.01,0.01 -4,-10.46 -2.16,-14.8 z"
                 id="path83" />
              <path
                 class="st0"
                 d="m 663.56,271.24 c 0,0 9.46,6.78 8.84,12.54 1.6,-4.34 1.6,-4.34 1.6,-4.34 0,0 6.35,7.07 8.37,13.26 2.02,6.19 3.46,5.93 7.66,13.75 4.2,7.82 8.83,25.47 8.83,25.47 0,0 6.75,-11.37 1.18,-28.28 -5.56,-16.9 -16.53,-34.91 -16.53,-34.91 l 2.1,17.44 c 0,0 -15.54,-26.31 -20.71,-34 -5.16,-7.69 -24.65,-13.1 -24.65,-13.1 0,0 23.49,29.06 23.31,32.17 z"
                 id="path85" />
              <path
                 class="st2"
                 d="m 686.38,358 c 0,0 7.89,13.03 6.86,22.87 5.79,-11.12 10.57,-11.68 10.57,-11.68 0,0 -10.59,10.57 -8.89,25.46 1.7,14.89 2.64,27.56 -0.38,33 -3.02,5.44 -4.06,14.32 -4.06,14.32 l 10.58,-11.44 c 0,0 -3.03,18.25 -8.9,25.3 -5.86,7.05 -20.94,34.85 -21.17,35.57 -0.23,0.72 0.53,-24.67 5.09,-37.44 4.56,-12.77 6.03,-38.9 6.03,-38.9 l 3.67,18.02 c 0,0 5,-15.58 2.89,-26.66 -2.11,-11.08 -3.67,-18.47 -3.81,-26.13 -0.14,-7.65 1.52,-22.29 1.52,-22.29 z"
                 id="path87" />
              <path
                 class="st5"
                 d="m 538.18,276.66 c 0,0 -7.1,4.95 -7.63,15.66 -0.53,10.71 0.41,23.26 0.41,23.26 l 2.07,-5.06 c 0,0 2.99,6.41 0.28,15.8 -2.71,9.39 6.23,27.55 6.23,27.55 0,0 -1.35,-15.78 -0.49,-28.01 0.86,-12.23 3.2,-22.32 4.25,-23.78 1.05,-1.46 4.76,-15.15 4.76,-15.15 l -8.82,8.04 c 0,-0.01 -2.36,-10.74 -1.06,-18.31 z"
                 id="path89" />
              <path
                 class="st1"
                 d="m 418.42,247.27 c 0,0 -41.97,-16.99 -58.48,-3.29 14.47,-21.32 48.63,-12.34 58.48,3.29 z"
                 id="path91" />
              <path
                 class="st3"
                 d="m 362.97,417.65 c 0,0 -15.49,3.86 -13.84,16.05 1.65,12.18 12.24,29.6 14.79,38.17 2.55,8.57 3.09,19.34 11.3,36.8 8.21,17.46 40.87,57.43 40.87,57.43 0,0 -44.05,-33.67 -54.24,-61.87 -10.19,-28.2 -1.76,-28.34 -12.36,-44.32 -10.6,-15.98 -21.37,-49.56 13.48,-42.26 z"
                 id="path93" />
              <path
                 class="st2"
                 d="m 621.68,423.78 c 0,0 13.04,-7.65 18.49,2.79 5.45,10.44 5.3,29.12 5.3,29.12 0,0 5.9,-18.78 2.05,-33.32 -3.85,-14.53 -18.6,-9.01 -25.84,1.41 z"
                 id="path95" />
              <g
                 id="g101">
                <path
                   class="st2"
                   d="m 420.39,298.9 c -0.43,5.37 -4.85,9.64 -10.35,9.73 -5.85,0.1 -10.68,-4.56 -10.78,-10.41 -0.05,-2.67 0.91,-5.12 2.5,-7.01 -2.56,-0.84 -4.9,-1.54 -6.8,-2.09 -1.61,2.69 -2.54,5.84 -2.48,9.21 0.17,9.59 8.08,17.21 17.67,17.04 7.75,-0.14 14.23,-5.34 16.33,-12.41 -1.64,-1.41 -3.74,-2.78 -6.09,-4.06 z"
                   id="path97" />
                <path
                   class="st2"
                   d="m 398.55,291.67 c 0,0 2.89,0.73 5.36,2.06 2.48,1.33 4.97,3.33 3.66,3.77 -1.31,0.44 -3.27,1.13 -4.79,-0.04 -1.52,-1.17 -2.9,-1.45 -4.17,-2.2 -1.27,-0.75 -1.62,-3.62 -0.06,-3.59 z"
                   id="path99" />
              </g>
              <g
                 id="g107">
                <path
                   class="st2"
                   d="m 593.36,295.88 c 0.61,5.35 5.19,9.46 10.68,9.37 5.85,-0.1 10.51,-4.93 10.41,-10.78 -0.05,-2.67 -1.08,-5.08 -2.74,-6.91 2.53,-0.93 4.84,-1.71 6.72,-2.32 1.71,2.63 2.74,5.75 2.8,9.12 0.17,9.59 -7.48,17.48 -17.07,17.65 -7.75,0.14 -14.41,-4.84 -16.75,-11.83 1.6,-1.5 3.65,-2.93 5.95,-4.3 z"
                   id="path103" />
                <path
                   class="st2"
                   d="m 614.95,287.89 c 0,0 -2.86,0.83 -5.29,2.25 -2.43,1.42 -4.85,3.5 -3.52,3.89 1.32,0.4 3.31,1.02 4.79,-0.2 1.48,-1.22 2.85,-1.55 4.09,-2.35 1.23,-0.79 1.48,-3.67 -0.07,-3.59 z"
                   id="path105" />
              </g>
              <path
                 class="st1"
                 d="m 428.21,149.28 c 0,0 -19.33,3.57 -24.57,11.92 -5.24,8.35 -21.25,37.72 -21.25,37.72 l 13.29,-11.37 c 0,0 5.55,7.45 -4.85,14.81 -10.4,7.37 -34.15,25.38 -34.15,25.38 0,0 29.32,-7.34 41.38,-16.17 12.06,-8.83 15.04,-22.89 19.29,-26.56 4.25,-3.67 7,-5.51 7,-5.51 l -13.14,3.46 c 0,0 -6.42,2.63 -1.94,-8.23 4.47,-10.83 18.94,-25.45 18.94,-25.45 z"
                 id="path109" />
            </g>
            <path
               class="st5"
               d="m 525,632.53 c 0,0 8.46,2.4 9.5,-19.82 1.04,-22.22 -0.19,-31.28 3.54,-43.64 3.73,-12.36 6.42,-22.08 -2.56,-23.35 -8.98,-1.28 -10.06,-1.97 -15.73,1.35 -5.67,3.32 -7.01,9.44 -13.5,6.68 -6.49,-2.75 -20.03,-19.35 -26.86,-20.66 -6.83,-1.31 -11.93,-6.45 -11.97,-8.67 -0.04,-2.22 40.21,-13.31 40.21,-13.31 l 62.53,-24.69 c 0,0 24.02,-4.52 24.07,-1.77 0.05,2.74 -21.02,88.35 -21.02,88.35 0,0 -13.81,51.1 -21.29,52.84 -7.48,1.74 -16.27,11.47 -26.92,6.69 z"
               id="path113" />
            <path
               class="st2"
               d="m 456.63,573.06 c 0,0 4.43,22.75 7.77,29.68 3.34,6.93 3.61,6.92 10.39,10.29 6.77,3.37 12.4,2.74 6.13,-2.79 -6.27,-5.53 -5.12,-0.72 -9.6,-11.38 -4.48,-10.66 -7.73,-11.95 -7.28,-17.06 0.45,-5.11 -2.88,-15.76 -7.41,-8.74 z"
               id="path115" />
          </g>
        </g>
      </g>
    </g>
  </g>
  <style
     type="text/css"
     id="style9">
	.st0{fill:#F7941D;}
	.st1{fill:#6D4118;}
	.st2{fill:#FFFFFF;}
	.st3{fill:#D1D3D4;}
	.st4{fill:#F9C900;}
	.st5{opacity:0.64;fill:#6D4118;}
	.st6{fill:#E88591;}
</style>
</svg>
